<svg width="682" height="48" viewBox="0 0 682 48" fill="none" xmlns="http://www.w3.org/2000/svg">
<path d="M67.8639 -60C87.7539 -54.9001 126.982 -32.6872 124.776 15.3652C122.018 75.4307 61.8468 113.019 46.804 169.684C35.7012 211.508 37.2768 316.259 104.97 360.27" stroke="#2B2C4F" stroke-width="1.5"/>
<path d="M27.2322 -60C47.1221 -54.9001 86.3505 -32.6872 84.1442 15.3652C81.3864 75.4307 21.215 113.019 6.17219 169.684C-4.93055 211.508 -3.35494 316.259 64.3378 360.27" stroke="#2B2C4F" stroke-width="1.5"/>
<path opacity="0.95" d="M96.5101 -49.7705C116.4 -44.6706 155.628 -22.4577 153.422 25.5947C150.664 85.6602 90.493 123.248 75.4501 179.914C64.3474 221.737 65.923 326.489 133.616 370.499" stroke="#2B2C4F" stroke-width="1.5"/>
<path opacity="0.9" d="M125.542 -40.1794C145.432 -35.0795 184.66 -12.8666 182.454 35.1858C179.696 95.2513 119.525 132.839 104.482 189.505C93.3791 231.328 94.9548 336.08 162.648 380.09" stroke="#2B2C4F" stroke-width="1.5"/>
<path opacity="0.85" d="M154.966 -31.2988C174.856 -26.1989 214.084 -3.98602 211.878 44.0664C209.12 104.132 148.949 141.72 133.906 198.386C122.803 240.209 124.379 344.961 192.071 388.971" stroke="#2B2C4F" stroke-width="1.5"/>
<path opacity="0.8" d="M184.796 -23.2212C204.686 -18.1213 243.915 4.09162 241.708 52.144C238.95 112.21 178.779 149.798 163.736 206.463C152.634 248.287 154.209 353.038 221.902 397.048" stroke="#2B2C4F" stroke-width="1.5"/>
<path opacity="0.75" d="M215.046 -16.0637C234.936 -10.9638 274.165 11.2491 271.958 59.3015C269.2 119.367 209.029 156.955 193.986 213.621C182.884 255.444 184.459 360.196 252.152 404.206" stroke="#2B2C4F" stroke-width="1.5"/>
<path opacity="0.7" d="M245.697 -9.9751C265.587 -4.8752 304.815 17.3377 302.609 65.3901C299.851 125.456 239.68 163.044 224.637 219.709C213.534 261.533 215.11 366.284 282.802 410.295" stroke="#2B2C4F" stroke-width="1.5"/>
<path opacity="0.65" d="M276.741 -5.14368C296.631 -0.0437752 335.859 22.1691 333.653 70.2215C330.895 130.287 270.724 167.875 255.681 224.541C244.578 266.364 246.154 371.116 313.847 415.126" stroke="#2B2C4F" stroke-width="1.5"/>
<path opacity="0.6" d="M308.136 -1.80872C328.026 3.29119 367.254 25.5041 365.048 73.5565C362.29 133.622 302.118 171.21 287.076 227.876C275.973 269.699 277.549 374.451 345.241 418.461" stroke="#2B2C4F" stroke-width="1.5"/>
<path opacity="0.55" d="M339.765 -0.269653C359.655 4.83025 398.884 27.0432 396.678 75.0956C393.92 135.161 333.748 172.749 318.706 229.415C307.603 271.238 309.178 375.99 376.871 420" stroke="#2B2C4F" stroke-width="1.5"/>
<path opacity="0.5" d="M371.453 -0.896362C391.343 4.20354 430.572 26.4164 428.366 74.4688C425.608 134.534 365.436 172.123 350.394 228.788C339.291 270.612 340.866 375.363 408.559 419.373" stroke="#2B2C4F" stroke-width="1.5"/>
<path opacity="0.45" d="M402.865 -4.1123C422.755 0.987597 461.983 23.2005 459.777 71.2529C457.019 131.318 396.848 168.907 381.805 225.572C370.702 267.396 372.278 372.147 439.971 416.157" stroke="#2B2C4F" stroke-width="1.5"/>
<path opacity="0.4" d="M433.466 -10.3528C453.356 -5.25288 492.585 16.96 490.378 65.0124C487.62 125.078 427.449 162.666 412.406 219.332C401.303 261.155 402.879 365.907 470.572 409.917" stroke="#2B2C4F" stroke-width="1.5"/>
<path opacity="0.35" d="M467.759 -21.6295C487.649 -16.5296 526.877 5.68335 524.671 53.7358C521.913 113.801 461.742 151.389 446.699 208.055C435.596 249.878 437.172 354.63 504.865 398.64" stroke="#2B2C4F" stroke-width="1.5"/>
<path opacity="0.3" d="M497.142 -30.5938C517.032 -25.4938 556.26 -3.28094 554.054 44.7715C551.296 104.837 491.125 142.425 476.082 199.091C464.979 240.914 466.555 345.666 534.248 389.676" stroke="#2B2C4F" stroke-width="1.5"/>
<path opacity="0.25" d="M527.405 -37.6987C547.295 -32.5988 586.523 -10.3859 584.317 37.6665C581.559 97.732 521.388 135.32 506.345 191.986C495.242 233.809 496.818 338.561 564.51 382.571" stroke="#2B2C4F" stroke-width="1.5"/>
<path opacity="0.2" d="M558.344 -42.9004C578.234 -37.8005 617.462 -15.5876 615.256 32.4648C612.498 92.5303 552.327 130.118 537.284 186.784C526.181 228.607 527.757 333.359 595.45 377.369" stroke="#2B2C4F" stroke-width="1.5"/>
<path opacity="0.15" d="M589.742 -46.199C609.632 -41.0991 648.86 -18.8862 646.654 29.1662C643.896 89.2317 583.724 126.82 568.682 183.485C557.579 225.309 559.154 330.06 626.847 374.071" stroke="#2B2C4F" stroke-width="1.5"/>
<path opacity="0.1" d="M621.385 -47.6364C641.275 -42.5365 680.503 -20.3235 678.297 27.7289C675.539 87.7944 615.368 125.383 600.325 182.048C589.222 223.872 590.798 328.623 658.491 372.633" stroke="#2B2C4F" stroke-width="1.5"/>
<path opacity="0.05" d="M653.079 -47.2866C672.969 -42.1867 712.198 -19.9738 709.992 28.0786C707.234 88.1441 647.062 125.732 632.019 182.398C620.917 224.221 622.492 328.973 690.185 372.983" stroke="#2B2C4F" stroke-width="1.5"/>
<path opacity="0.1" d="M684.664 -45.2433C704.554 -40.1434 743.783 -17.9305 741.576 30.1219C738.819 90.1874 678.647 127.776 663.604 184.441C652.502 226.265 654.077 331.016 721.77 375.026" stroke="#2B2C4F" stroke-width="1.5"/>
</svg>
